<?xml version="1.0" encoding="utf-8"?>
<!-- Generator: Adobe Illustrator 19.0.0, SVG Export Plug-In . SVG Version: 6.00 Build 0)  -->
<svg version="1.1" id="Layer_1" xmlns="http://www.w3.org/2000/svg" xmlns:xlink="http://www.w3.org/1999/xlink" x="0px" y="0px"
	 viewBox="0 0 500 500" style="enable-background:new 0 0 500 500;" xml:space="preserve">
<style type="text/css">
	.st0{fill:#FFFFFF;}
	.st1{fill:#9DC9ED;}
	.st2{fill:#ED1D24;}
	.st3{fill:#2B3189;}
</style>
<g id="XMLID_50_">
	<path id="XMLID_52_" class="st0" d="M425,250c0,96.7-78.4,175-175,175c-96.7,0-175-78.4-175-175c0-96.6,78.4-175,175-175
		C346.6,75,425,153.3,425,250"/>
	<path id="XMLID_58_" class="st1" d="M250,130c-66.3,0-120,53.7-120,120c0,66.3,53.7,120,120,120c66.3,0,120-53.7,120-120
		C370,183.7,316.3,130,250,130z M425,250c0,96.7-78.4,175-175,175c-96.7,0-175-78.4-175-175c0-96.6,78.4-175,175-175
		C346.6,75,425,153.3,425,250"/>
	<polyline id="XMLID_59_" class="st2" points="303.7,236.4 327.7,206.4 303,206.4 291.2,221.2 303.7,236.4 	"/>
	<path id="XMLID_63_" class="st3" d="M271.5,269l0,0.3h46.2v-0.3c0,0-0.7-0.1-1.4-0.2c-3.1-0.4-5.5-1.2-7.3-2
		c-7-2.9-12.8-8.6-17.8-14.4c0,0-3.7,4.9-7,8.4C279.3,266.1,274,268.3,271.5,269 M247.1,269c-3-0.8-5.9-2.4-6.7-3
		c-9.7-6.1-16.1-16.6-16.1-29.2c0-19.2,15.6-34.8,34.8-34.8c9.5,0,18.9,3.6,26.4,12.4l0.4,0.5l0.3-0.2l-37.5-64.9l-68.9,119.4H247
		L247.1,269 M259,221.5c4.8,0,8.9,2.1,11.9,5.6c1.1,1.3,1.4,1.7,2.2,2.7c2.8,3.6,3.8,5,5.5,7.1c-1.7,2-2.6,3.4-5.5,7.1
		c-0.8,1-1.2,1.4-2.2,2.7c-3,3.6-7.1,5.6-11.9,5.6c-8.5,0-15.4-6.9-15.4-15.4C243.6,228.4,250.5,221.5,259,221.5"/>
	<path id="XMLID_84_" class="st3" d="M247.9,304.8v-3.2c0,0-0.1,0.2-0.7,0.4c-0.9,0.4-2.2,0.7-3.6,1c-1.7,0.4-5.1,1-5,3.4
		c0.1,2.5,2.6,3,4.6,2.8C246.2,308.9,247.8,307.1,247.9,304.8z M239.5,297.4l-5.6-0.2c0.2-1.1,0.2-8,9.8-7.8
		c5.1,0.1,10.3,1.7,10.3,8.2v13.2c0,0.5,0.1,1,0.3,1.5c0.2,0.4,0.4,0.5,0.7,0.8h-6.6c0,0-0.2-0.5-0.4-1.5c-0.1-0.7-0.1-0.7-0.2-1.2
		c0,0-1,3.1-6.2,3.4c-4.5,0.2-9-2.4-9.3-6.8c-0.2-2.9,1.7-5.2,4-6.3c1.8-0.9,4.3-1.4,8-1.9c2.2-0.3,3.4-0.7,3.4-2
		c0.1-1.8-1.7-2.8-3.8-2.9C239.1,293.9,239.5,297.4,239.5,297.4 M201.4,294.7h3.2v11.8c0,1.9,0.2,4.3,2,5.7c1.8,1.3,4.3,1.2,6.7,1.1
		c1,0,2,0,2,0l0-4.7h-1.5c-1,0-1.6-0.1-2.2-0.5c-0.8-0.6-0.7-1.6-0.7-2.2v-11.2h4.2v-4.4h-4.2v-7.3l-6.3,0v7.3l-3.2,0V294.7
		 M218.9,313.3h6.4v-10.5c0-2.9,0.6-5.6,3.2-6.9c1.4-0.7,2.4-0.8,4-0.6v-5.5c-0.2-0.1-0.9-0.2-1.7-0.2c-2.1-0.1-4,1.1-5.2,3.2
		c-0.1,0.2-0.2,0.3-0.4,0.8l-0.2-3.3h-6.1V313.3 M189.1,294.6c-4.5,0-5,4.4-5,4.4h10.2C194.3,299,193.6,294.5,189.1,294.6z
		 M177.6,302.5c-0.4-7,4.2-13,11.4-12.9c12.7,0.2,12,13.9,12,13.9h-17.1c0,0,0.2,5.5,5.6,5.5c3.6,0,4.7-2.9,4.7-2.9l6.5,0.4
		c0,0-1.8,7.4-11.2,7.7C185.3,314.2,178,311,177.6,302.5 M172.8,313.3V287h9.7v-5.7h-26.1v5.7h9.6v26.3H172.8 M305,304.8v-3.2
		c0,0-0.1,0.2-0.7,0.4c-1,0.4-2.2,0.7-3.6,1c-1.7,0.4-5.1,1-5,3.4c0.1,2.5,2.6,3,4.5,2.8C303.2,309,304.8,307.2,305,304.8z
		 M296.5,297.5l-5.6-0.2c0.2-1.1,0.2-8,9.9-7.8c5.1,0.1,10.3,1.7,10.3,8.2v13.2c0,0.5,0.1,1,0.3,1.5c0.2,0.4,0.4,0.5,0.7,0.8h-6.5
		c0,0-0.2-0.5-0.4-1.5c-0.1-0.7-0.1-0.7-0.2-1.2c0,0-1,3.1-6.2,3.4c-4.5,0.2-9-2.4-9.3-6.8c-0.2-2.9,1.7-5.2,4-6.3
		c1.7-0.8,4.3-1.4,7.9-1.9c2.3-0.3,3.4-0.7,3.5-2c0.1-1.8-1.8-2.8-3.8-2.9C296.1,293.9,296.5,297.5,296.5,297.5 M273,286.8v9.9h4.8
		c3.5,0.1,6.1-1.4,6.1-4.9c0-3.5-2.4-5.1-6.3-4.9H273z M273,313.3h-6.8v-32h11.1c7.8-0.3,13.2,3.4,13.2,10.4
		c0,8.5-6.1,10.7-13.9,10.6c0,0-1.8,0-3.6,0V313.3 M315.6,313.3l0-32h6.4v17.4l8-8.5h7.5L329,299l9.5,14.2h-7.7l-6.4-10.2l-2.5,2.5
		v7.7H315.6"/>
	<path id="XMLID_89_" class="st3" d="M347.2,279.1h1.6c1.3,0,2.8-0.1,2.8-1.7c0-1.6-1.5-1.7-2.8-1.6h-1.6V279.1z M345,274h4.6
		c2.8,0,4.2,1.3,4.2,3.6c0,2.1-1.2,3.1-2.8,3.3l3.1,5h-2.3l-2.9-4.8h-1.6v4.8H345V274z M349,288.4c4.7,0,8.5-3.8,8.5-8.5
		c0-4.7-3.8-8.5-8.5-8.5c-4.7,0-8.5,3.8-8.5,8.5C340.5,284.6,344.3,288.4,349,288.4z M349,269.6c5.7,0,10.3,4.6,10.3,10.3
		c0,5.7-4.6,10.3-10.3,10.3c-5.7,0-10.3-4.6-10.3-10.3C338.6,274.2,343.3,269.6,349,269.6"/>
	<path id="XMLID_90_" class="st0" d="M113.9,228.5c-0.1,4.8-4,8.7-8.9,8.6c-4.9-0.1-8.7-4.1-8.6-8.9c0.1-4.9,4.1-8.7,8.9-8.7
		C110.1,219.6,113.9,223.6,113.9,228.5"/>
	<path id="XMLID_91_" class="st0" d="M386.2,228.5c0.1,4.8,4,8.7,9,8.6c4.8-0.1,8.7-4.1,8.6-8.9c-0.1-4.9-4-8.7-8.9-8.7
		C389.9,219.6,386.1,223.6,386.2,228.5"/>
	<polyline id="XMLID_92_" class="st0" points="129,302.9 132.9,309 119.3,323.5 119.4,323.6 139,318.4 142.3,323.5 129.1,339.6 
		129.2,339.6 148.5,333.1 152.2,338.7 122.2,347.7 118.9,342.8 132.8,325.9 132.8,325.8 111.7,331.6 108.6,326.8 129,302.9 	"/>
	<polyline id="XMLID_93_" class="st0" points="155.7,340.9 160.8,345.2 153.5,353.8 163.3,362.1 170.6,353.6 175.6,357.9 
		156.1,380.8 151.1,376.5 159.5,366.6 149.7,358.2 141.3,368.1 136.2,363.9 155.7,340.9 	"/>
	<path id="XMLID_96_" class="st0" d="M185.5,373.3l-7.6,6.6l6.5,3.4L185.5,373.3z M187.3,364.3l4.9,2.5l-2.3,32.8l-6.6-3.5l0.7-6.9
		l-10.4-5.4l-5.2,4.5l-6.5-3.4L187.3,364.3"/>
	<polyline id="XMLID_97_" class="st0" points="207,379.3 198.8,376.8 200.5,371.2 223.3,378.1 221.6,383.7 213.4,381.2 206.3,404.4 
		200,402.5 207,379.3 	"/>
	<polyline id="XMLID_98_" class="st0" points="230.7,391 225.3,390.3 230.1,378.8 236.2,379.7 230.7,391 	"/>
	<path id="XMLID_99_" class="st0" d="M255.1,387.8c-1-1.4-3.2-2-4.8-2.1c-1.9,0-4.5,0.8-4.5,3c-0.1,5.5,13.8,2.2,13.7,12.7
		c-0.1,6.7-5.6,9.8-11.8,9.7c-3.9-0.1-7.3-1.3-10.1-3.9l4.8-5.1c1.3,1.8,3.5,2.9,5.7,2.9c2.2,0,4.6-0.9,4.6-3.1
		c0.1-5.5-14.1-2.8-13.9-12.8c0.1-6.4,5.7-9.7,11.6-9.6c3.4,0,6.7,1,9.2,3.3L255.1,387.8"/>
	<path id="XMLID_100_" class="st0" d="M312.5,396.1c-3.1,3.2-6.9,5.3-11.1,6.7c-8.9,2.9-17.4-0.8-20.4-10c-3-9.2,1.6-17.2,10.5-20.1
		c4.5-1.5,8.9-1.8,12.6-0.1l-2.8,6.3c-2.3-1.2-4.7-1.5-7.8-0.4c-5.4,1.8-7.6,6.8-5.9,12.1c1.8,5.3,6.5,8.1,11.9,6.3
		c2.7-0.9,4.5-2.3,5.5-3.4l-1.5-4.6l-5.1,1.7l-1.9-5.8l11.2-3.7L312.5,396.1"/>
	<path id="XMLID_103_" class="st0" d="M333.8,380.5c4.8-3.1,5.7-8.5,2.6-13.2c-3-4.7-8.4-6.1-13.1-3.1c-4.8,3.1-5.7,8.5-2.6,13.2
		C323.7,382.1,329,383.6,333.8,380.5z M320,359c7.9-5.1,17-3.6,22.2,4.5c5.2,8.1,2.8,17-5.1,22.1c-7.9,5.1-17,3.6-22.2-4.5
		C309.7,373,312.1,364.1,320,359"/>
	<path id="XMLID_106_" class="st0" d="M364.6,354.5c3.8-4.2,3.3-9.7-0.9-13.4c-4.2-3.8-9.7-3.8-13.5,0.4c-3.8,4.2-3.3,9.7,0.8,13.4
		C355.2,358.7,360.7,358.7,364.6,354.5z M345.7,337.3c6.3-6.9,15.5-7.8,22.6-1.3c7.1,6.5,7.1,15.7,0.7,22.7
		c-6.3,6.9-15.5,7.8-22.6,1.3C339.3,353.5,339.4,344.3,345.7,337.3"/>
	<path id="XMLID_109_" class="st0" d="M383.4,327.8l1.6-3c2.9-5.5,3-10.6-3.1-13.9c-5.2-2.8-9.9,0.1-12.5,5.1l-1.8,3.5L383.4,327.8z
		 M359.1,322.5l4.7-8.8c4.5-8.6,12-13.8,21.7-8.7c8.6,4.6,9.5,14,5.3,22l-5.1,9.6L359.1,322.5"/>
	<path id="XMLID_112_" class="st0" d="M143.5,145.7l3.2-3.1c1.7-1.6,2.8-3.8,0.8-5.8c-2.2-2.2-4.7-0.3-6.5,1.4l-2.4,2.4L143.5,145.7
		z M129.9,141.2l8-7.8c4.5-4.4,9.6-6.5,14.6-1.4c4.9,5.1,3,10-1.6,14.4l-3.5,3.4l8.2,8.4l-4.8,4.6L129.9,141.2"/>
	<path id="XMLID_115_" class="st0" d="M167.9,125.2l3.3-2c2.1-1.3,4.7-3,3-5.8c-1.6-2.6-4.1-1.5-6.2-0.2l-3.7,2.3L167.9,125.2z
		 M155.7,118.1l9.9-6.1c5.2-3.2,10.8-4.2,14.5,1.8c2.2,3.6,2,7.6-1.2,10.4l13.2,6.8l-6.8,4.2l-11.7-6.9l-2.8,1.7l6.3,10.2l-5.6,3.5
		L155.7,118.1"/>
	<path id="XMLID_118_" class="st0" d="M210,118.9c5.4-1.7,7.8-6.7,6.1-12c-1.6-5.4-6.4-8.2-11.8-6.6c-5.4,1.7-7.8,6.6-6.1,12
		C199.9,117.7,204.6,120.6,210,118.9z M202.6,94.5c9-2.7,17.3,1.2,20.1,10.4c2.8,9.2-1.9,17.1-10.9,19.9c-9,2.7-17.3-1.2-20.1-10.4
		C188.8,105.2,193.6,97.2,202.6,94.5"/>
	<polyline id="XMLID_119_" class="st0" points="237.3,94.6 228.7,95.1 228.4,89.3 252.2,87.8 252.5,93.7 243.9,94.2 245.4,118.4 
		238.8,118.8 237.3,94.6 	"/>
	<polyline id="XMLID_120_" class="st0" points="264.5,88.6 284.8,91.6 283.8,97.7 270.2,95.6 269.3,101.2 282.2,103.1 281.3,109.2 
		268.4,107.2 267.5,113.3 281.9,115.5 281,121.5 260,118.3 264.5,88.6 	"/>
	<path id="XMLID_121_" class="st0" d="M315.2,110.3c-0.6-2-2.1-3.5-4.4-4.4c-4.6-1.9-9.6,0.5-11.7,5.7c-2.1,5.2-0.2,10.4,4.3,12.2
		c2.5,1,4.9,0.7,7-0.7l3.6,5.9c-3.7,2.4-8.2,2.3-12.1,0.8c-8.7-3.5-12.8-11.8-9.1-20.8c3.6-8.9,12.3-12.1,21-8.6
		c3.1,1.3,6.6,3.9,7.8,7.9L315.2,110.3"/>
	<polyline id="XMLID_122_" class="st0" points="335,119.3 327.9,114.4 331.2,109.6 350.9,123 347.6,127.9 340.5,123 326.8,143 
		321.3,139.3 335,119.3 	"/>
	<path id="XMLID_123_" class="st0" d="M365.2,147c0.2-1.7-0.8-3.7-1.9-4.9c-1.3-1.3-3.7-2.6-5.3-1c-3.9,3.8,8.2,11.3,0.6,18.7
		c-4.8,4.7-10.9,3-15.2-1.5c-2.7-2.8-4.2-6-4.3-9.9l7-0.2c-0.3,2.2,0.4,4.5,2,6.1c1.5,1.6,3.9,2.6,5.5,1.1c4-3.8-8-11.9-0.7-18.9
		c4.6-4.5,10.9-2.8,15,1.5c2.4,2.5,4,5.4,4.1,8.8L365.2,147"/>
</g>
</svg>
