<?xml version="1.0" encoding="UTF-8" standalone="no"?>
<!-- Generator: Adobe Illustrator 19.0.0, SVG Export Plug-In . SVG Version: 6.00 Build 0)  -->

<svg
   version="1.1"
   id="Layer_1"
   x="0px"
   y="0px"
   viewBox="0 0 350 350"
   xml:space="preserve"
   sodipodi:docname="TPM3.svg"
   inkscape:version="1.4.2 (f4327f4, 2025-05-13)"
   width="350"
   height="350"
   xmlns:inkscape="http://www.inkscape.org/namespaces/inkscape"
   xmlns:sodipodi="http://sodipodi.sourceforge.net/DTD/sodipodi-0.dtd"
   xmlns="http://www.w3.org/2000/svg"
   xmlns:svg="http://www.w3.org/2000/svg"><defs
   id="defs1"><clipPath
     clipPathUnits="userSpaceOnUse"
     id="clipPath3"><circle
       style="fill:#000000;stroke-width:1.00157;stroke-dasharray:none"
       id="circle3"
       cx="250"
       cy="250"
       r="175"
       inkscape:transform-center-x="-159.75287"
       inkscape:transform-center-y="50.308914" /></clipPath></defs><sodipodi:namedview
   id="namedview1"
   pagecolor="#505050"
   bordercolor="#eeeeee"
   borderopacity="1"
   inkscape:showpageshadow="0"
   inkscape:pageopacity="0"
   inkscape:pagecheckerboard="0"
   inkscape:deskcolor="#505050"
   showgrid="false"
   inkscape:zoom="2.266"
   inkscape:cx="250"
   inkscape:cy="192.63019"
   inkscape:window-width="2560"
   inkscape:window-height="1351"
   inkscape:window-x="3831"
   inkscape:window-y="-9"
   inkscape:window-maximized="1"
   inkscape:current-layer="Layer_1" />
<style
   type="text/css"
   id="style1">
	.st0{fill:#FFFFFF;}
	.st1{fill:#9DC9ED;}
	.st2{fill:#ED1D24;}
	.st3{fill:#2B3189;}
</style>
<g
   id="XMLID_50_"
   clip-path="url(#clipPath3)"
   transform="translate(-75,-75)">
	
	<path
   id="XMLID_58_"
   class="st1"
   d="m 250,130 c -66.3,0 -120,53.7 -120,120 0,66.3 53.7,120 120,120 66.3,0 120,-53.7 120,-120 0,-66.3 -53.7,-120 -120,-120 z M 425,250 C 425,346.7 346.6,425 250,425 153.3,425 75,346.6 75,250 75,153.4 153.4,75 250,75 c 96.6,0 175,78.3 175,175" />
	
	
	
	
	<path
   id="XMLID_90_"
   class="st0"
   d="m 113.9,228.5 c -0.1,4.8 -4,8.7 -8.9,8.6 -4.9,-0.1 -8.7,-4.1 -8.6,-8.9 0.1,-4.9 4.1,-8.7 8.9,-8.7 4.8,0.1 8.6,4.1 8.6,9" />
	<path
   id="XMLID_91_"
   class="st0"
   d="m 386.2,228.5 c 0.1,4.8 4,8.7 9,8.6 4.8,-0.1 8.7,-4.1 8.6,-8.9 -0.1,-4.9 -4,-8.7 -8.9,-8.7 -5,0.1 -8.8,4.1 -8.7,9" />
	<polyline
   id="XMLID_92_"
   class="st0"
   points="129,302.9 132.9,309 119.3,323.5 119.4,323.6 139,318.4 142.3,323.5 129.1,339.6    129.2,339.6 148.5,333.1 152.2,338.7 122.2,347.7 118.9,342.8 132.8,325.9 132.8,325.8 111.7,331.6 108.6,326.8 129,302.9  " />
	<polyline
   id="XMLID_93_"
   class="st0"
   points="155.7,340.9 160.8,345.2 153.5,353.8 163.3,362.1 170.6,353.6 175.6,357.9    156.1,380.8 151.1,376.5 159.5,366.6 149.7,358.2 141.3,368.1 136.2,363.9 155.7,340.9  " />
	<path
   id="XMLID_96_"
   class="st0"
   d="m 185.5,373.3 -7.6,6.6 6.5,3.4 z m 1.8,-9 4.9,2.5 -2.3,32.8 -6.6,-3.5 0.7,-6.9 -10.4,-5.4 -5.2,4.5 -6.5,-3.4 25.4,-20.6" />
	<polyline
   id="XMLID_97_"
   class="st0"
   points="207,379.3 198.8,376.8 200.5,371.2 223.3,378.1 221.6,383.7 213.4,381.2 206.3,404.4    200,402.5 207,379.3  " />
	<polyline
   id="XMLID_98_"
   class="st0"
   points="230.7,391 225.3,390.3 230.1,378.8 236.2,379.7 230.7,391  " />
	<path
   id="XMLID_99_"
   class="st0"
   d="m 255.1,387.8 c -1,-1.4 -3.2,-2 -4.8,-2.1 -1.9,0 -4.5,0.8 -4.5,3 -0.1,5.5 13.8,2.2 13.7,12.7 -0.1,6.7 -5.6,9.8 -11.8,9.7 -3.9,-0.1 -7.3,-1.3 -10.1,-3.9 l 4.8,-5.1 c 1.3,1.8 3.5,2.9 5.7,2.9 2.2,0 4.6,-0.9 4.6,-3.1 0.1,-5.5 -14.1,-2.8 -13.9,-12.8 0.1,-6.4 5.7,-9.7 11.6,-9.6 3.4,0 6.7,1 9.2,3.3 l -4.5,5" />
	<path
   id="XMLID_100_"
   class="st0"
   d="m 312.5,396.1 c -3.1,3.2 -6.9,5.3 -11.1,6.7 -8.9,2.9 -17.4,-0.8 -20.4,-10 -3,-9.2 1.6,-17.2 10.5,-20.1 4.5,-1.5 8.9,-1.8 12.6,-0.1 l -2.8,6.3 c -2.3,-1.2 -4.7,-1.5 -7.8,-0.4 -5.4,1.8 -7.6,6.8 -5.9,12.1 1.8,5.3 6.5,8.1 11.9,6.3 2.7,-0.9 4.5,-2.3 5.5,-3.4 l -1.5,-4.6 -5.1,1.7 -1.9,-5.8 11.2,-3.7 4.8,15" />
	<path
   id="XMLID_103_"
   class="st0"
   d="m 333.8,380.5 c 4.8,-3.1 5.7,-8.5 2.6,-13.2 -3,-4.7 -8.4,-6.1 -13.1,-3.1 -4.8,3.1 -5.7,8.5 -2.6,13.2 3,4.7 8.3,6.2 13.1,3.1 z M 320,359 c 7.9,-5.1 17,-3.6 22.2,4.5 5.2,8.1 2.8,17 -5.1,22.1 -7.9,5.1 -17,3.6 -22.2,-4.5 -5.2,-8.1 -2.8,-17 5.1,-22.1" />
	<path
   id="XMLID_106_"
   class="st0"
   d="m 364.6,354.5 c 3.8,-4.2 3.3,-9.7 -0.9,-13.4 -4.2,-3.8 -9.7,-3.8 -13.5,0.4 -3.8,4.2 -3.3,9.7 0.8,13.4 4.2,3.8 9.7,3.8 13.6,-0.4 z m -18.9,-17.2 c 6.3,-6.9 15.5,-7.8 22.6,-1.3 7.1,6.5 7.1,15.7 0.7,22.7 -6.3,6.9 -15.5,7.8 -22.6,1.3 -7.1,-6.5 -7,-15.7 -0.7,-22.7" />
	<path
   id="XMLID_109_"
   class="st0"
   d="m 383.4,327.8 1.6,-3 c 2.9,-5.5 3,-10.6 -3.1,-13.9 -5.2,-2.8 -9.9,0.1 -12.5,5.1 l -1.8,3.5 z m -24.3,-5.3 4.7,-8.8 c 4.5,-8.6 12,-13.8 21.7,-8.7 8.6,4.6 9.5,14 5.3,22 l -5.1,9.6 -26.6,-14.1" />
	<path
   id="XMLID_112_"
   class="st0"
   d="m 143.5,145.7 3.2,-3.1 c 1.7,-1.6 2.8,-3.8 0.8,-5.8 -2.2,-2.2 -4.7,-0.3 -6.5,1.4 l -2.4,2.4 z m -13.6,-4.5 8,-7.8 c 4.5,-4.4 9.6,-6.5 14.6,-1.4 4.9,5.1 3,10 -1.6,14.4 l -3.5,3.4 8.2,8.4 -4.8,4.6 -20.9,-21.6" />
	<path
   id="XMLID_115_"
   class="st0"
   d="m 167.9,125.2 3.3,-2 c 2.1,-1.3 4.7,-3 3,-5.8 -1.6,-2.6 -4.1,-1.5 -6.2,-0.2 l -3.7,2.3 z m -12.2,-7.1 9.9,-6.1 c 5.2,-3.2 10.8,-4.2 14.5,1.8 2.2,3.6 2,7.6 -1.2,10.4 l 13.2,6.8 -6.8,4.2 -11.7,-6.9 -2.8,1.7 6.3,10.2 -5.6,3.5 -15.8,-25.6" />
	<path
   id="XMLID_118_"
   class="st0"
   d="m 210,118.9 c 5.4,-1.7 7.8,-6.7 6.1,-12 -1.6,-5.4 -6.4,-8.2 -11.8,-6.6 -5.4,1.7 -7.8,6.6 -6.1,12 1.7,5.4 6.4,8.3 11.8,6.6 z m -7.4,-24.4 c 9,-2.7 17.3,1.2 20.1,10.4 2.8,9.2 -1.9,17.1 -10.9,19.9 -9,2.7 -17.3,-1.2 -20.1,-10.4 -2.9,-9.2 1.9,-17.2 10.9,-19.9" />
	<polyline
   id="XMLID_119_"
   class="st0"
   points="237.3,94.6 228.7,95.1 228.4,89.3 252.2,87.8 252.5,93.7 243.9,94.2 245.4,118.4    238.8,118.8 237.3,94.6  " />
	<polyline
   id="XMLID_120_"
   class="st0"
   points="264.5,88.6 284.8,91.6 283.8,97.7 270.2,95.6 269.3,101.2 282.2,103.1 281.3,109.2    268.4,107.2 267.5,113.3 281.9,115.5 281,121.5 260,118.3 264.5,88.6  " />
	<path
   id="XMLID_121_"
   class="st0"
   d="m 315.2,110.3 c -0.6,-2 -2.1,-3.5 -4.4,-4.4 -4.6,-1.9 -9.6,0.5 -11.7,5.7 -2.1,5.2 -0.2,10.4 4.3,12.2 2.5,1 4.9,0.7 7,-0.7 l 3.6,5.9 c -3.7,2.4 -8.2,2.3 -12.1,0.8 -8.7,-3.5 -12.8,-11.8 -9.1,-20.8 3.6,-8.9 12.3,-12.1 21,-8.6 3.1,1.3 6.6,3.9 7.8,7.9 l -6.4,2" />
	<polyline
   id="XMLID_122_"
   class="st0"
   points="335,119.3 327.9,114.4 331.2,109.6 350.9,123 347.6,127.9 340.5,123 326.8,143    321.3,139.3 335,119.3  " />
	<path
   id="XMLID_123_"
   class="st0"
   d="m 365.2,147 c 0.2,-1.7 -0.8,-3.7 -1.9,-4.9 -1.3,-1.3 -3.7,-2.6 -5.3,-1 -3.9,3.8 8.2,11.3 0.6,18.7 -4.8,4.7 -10.9,3 -15.2,-1.5 -2.7,-2.8 -4.2,-6 -4.3,-9.9 l 7,-0.2 c -0.3,2.2 0.4,4.5 2,6.1 1.5,1.6 3.9,2.6 5.5,1.1 4,-3.8 -8,-11.9 -0.7,-18.9 4.6,-4.5 10.9,-2.8 15,1.5 2.4,2.5 4,5.4 4.1,8.8 l -6.8,0.2" />
</g>
</svg>
