<?xml version="1.0" encoding="UTF-8" standalone="no"?>
<!-- Generator: Adobe Illustrator 19.0.0, SVG Export Plug-In . SVG Version: 6.00 Build 0)  -->

<svg
   version="1.1"
   id="Layer_1"
   x="0px"
   y="0px"
   viewBox="0 0 350 350"
   xml:space="preserve"
   sodipodi:docname="TPM4.svg"
   inkscape:version="1.4.2 (f4327f4, 2025-05-13)"
   width="350"
   height="350"
   xmlns:inkscape="http://www.inkscape.org/namespaces/inkscape"
   xmlns:sodipodi="http://sodipodi.sourceforge.net/DTD/sodipodi-0.dtd"
   xmlns="http://www.w3.org/2000/svg"
   xmlns:svg="http://www.w3.org/2000/svg"><defs
   id="defs1"><clipPath
     clipPathUnits="userSpaceOnUse"
     id="clipPath3"><circle
       style="fill:#000000;stroke-width:1.00157;stroke-dasharray:none"
       id="circle3"
       cx="250"
       cy="250"
       r="175"
       inkscape:transform-center-x="-159.75287"
       inkscape:transform-center-y="50.308914" /></clipPath></defs><sodipodi:namedview
   id="namedview1"
   pagecolor="#505050"
   bordercolor="#eeeeee"
   borderopacity="1"
   inkscape:showpageshadow="0"
   inkscape:pageopacity="0"
   inkscape:pagecheckerboard="0"
   inkscape:deskcolor="#505050"
   showgrid="false"
   inkscape:zoom="2.266"
   inkscape:cx="250"
   inkscape:cy="192.63019"
   inkscape:window-width="1920"
   inkscape:window-height="991"
   inkscape:window-x="1911"
   inkscape:window-y="356"
   inkscape:window-maximized="1"
   inkscape:current-layer="Layer_1" />
<style
   type="text/css"
   id="style1">
	.st0{fill:#FFFFFF;}
	.st1{fill:#9DC9ED;}
	.st2{fill:#ED1D24;}
	.st3{fill:#2B3189;}
</style>
<g
   id="XMLID_50_"
   clip-path="url(#clipPath3)"
   transform="translate(-75,-75)">
	<path
   id="XMLID_52_"
   class="st0"
   d="M 425,250 C 425,346.7 346.6,425 250,425 153.3,425 75,346.6 75,250 75,153.4 153.4,75 250,75 c 96.6,0 175,78.3 175,175" />
	<path
   id="XMLID_58_"
   class="st1"
   d="m 250,130 c -66.3,0 -120,53.7 -120,120 0,66.3 53.7,120 120,120 66.3,0 120,-53.7 120,-120 0,-66.3 -53.7,-120 -120,-120 z M 425,250 C 425,346.7 346.6,425 250,425 153.3,425 75,346.6 75,250 75,153.4 153.4,75 250,75 c 96.6,0 175,78.3 175,175"
   style="opacity:0" />
	<polyline
   id="XMLID_59_"
   class="st2"
   points="303.7,236.4 327.7,206.4 303,206.4 291.2,221.2 303.7,236.4  " />
	<path
   id="XMLID_63_"
   class="st3"
   d="m 271.5,269 v 0.3 h 46.2 V 269 c 0,0 -0.7,-0.1 -1.4,-0.2 -3.1,-0.4 -5.5,-1.2 -7.3,-2 -7,-2.9 -12.8,-8.6 -17.8,-14.4 0,0 -3.7,4.9 -7,8.4 -4.9,5.3 -10.2,7.5 -12.7,8.2 m -24.4,0 c -3,-0.8 -5.9,-2.4 -6.7,-3 -9.7,-6.1 -16.1,-16.6 -16.1,-29.2 0,-19.2 15.6,-34.8 34.8,-34.8 9.5,0 18.9,3.6 26.4,12.4 l 0.4,0.5 0.3,-0.2 -37.5,-64.9 -68.9,119.4 H 247 l 0.1,-0.2 M 259,221.5 c 4.8,0 8.9,2.1 11.9,5.6 1.1,1.3 1.4,1.7 2.2,2.7 2.8,3.6 3.8,5 5.5,7.1 -1.7,2 -2.6,3.4 -5.5,7.1 -0.8,1 -1.2,1.4 -2.2,2.7 -3,3.6 -7.1,5.6 -11.9,5.6 -8.5,0 -15.4,-6.9 -15.4,-15.4 0,-8.5 6.9,-15.4 15.4,-15.4" />
	<path
   id="XMLID_84_"
   class="st3"
   d="m 247.9,304.8 v -3.2 c 0,0 -0.1,0.2 -0.7,0.4 -0.9,0.4 -2.2,0.7 -3.6,1 -1.7,0.4 -5.1,1 -5,3.4 0.1,2.5 2.6,3 4.6,2.8 3,-0.3 4.6,-2.1 4.7,-4.4 z m -8.4,-7.4 -5.6,-0.2 c 0.2,-1.1 0.2,-8 9.8,-7.8 5.1,0.1 10.3,1.7 10.3,8.2 v 13.2 c 0,0.5 0.1,1 0.3,1.5 0.2,0.4 0.4,0.5 0.7,0.8 h -6.6 c 0,0 -0.2,-0.5 -0.4,-1.5 -0.1,-0.7 -0.1,-0.7 -0.2,-1.2 0,0 -1,3.1 -6.2,3.4 -4.5,0.2 -9,-2.4 -9.3,-6.8 -0.2,-2.9 1.7,-5.2 4,-6.3 1.8,-0.9 4.3,-1.4 8,-1.9 2.2,-0.3 3.4,-0.7 3.4,-2 0.1,-1.8 -1.7,-2.8 -3.8,-2.9 -4.8,0 -4.4,3.5 -4.4,3.5 m -38.1,-2.7 h 3.2 v 11.8 c 0,1.9 0.2,4.3 2,5.7 1.8,1.3 4.3,1.2 6.7,1.1 1,0 2,0 2,0 v -4.7 h -1.5 c -1,0 -1.6,-0.1 -2.2,-0.5 -0.8,-0.6 -0.7,-1.6 -0.7,-2.2 v -11.2 h 4.2 v -4.4 h -4.2 V 283 h -6.3 v 7.3 h -3.2 v 4.4 m 17.5,18.6 h 6.4 v -10.5 c 0,-2.9 0.6,-5.6 3.2,-6.9 1.4,-0.7 2.4,-0.8 4,-0.6 v -5.5 c -0.2,-0.1 -0.9,-0.2 -1.7,-0.2 -2.1,-0.1 -4,1.1 -5.2,3.2 -0.1,0.2 -0.2,0.3 -0.4,0.8 l -0.2,-3.3 h -6.1 v 23 m -29.8,-18.7 c -4.5,0 -5,4.4 -5,4.4 h 10.2 c 0,0 -0.7,-4.5 -5.2,-4.4 z m -11.5,7.9 c -0.4,-7 4.2,-13 11.4,-12.9 12.7,0.2 12,13.9 12,13.9 h -17.1 c 0,0 0.2,5.5 5.6,5.5 3.6,0 4.7,-2.9 4.7,-2.9 l 6.5,0.4 c 0,0 -1.8,7.4 -11.2,7.7 -4.2,0 -11.5,-3.2 -11.9,-11.7 m -4.8,10.8 V 287 h 9.7 v -5.7 h -26.1 v 5.7 h 9.6 v 26.3 h 6.8 M 305,304.8 v -3.2 c 0,0 -0.1,0.2 -0.7,0.4 -1,0.4 -2.2,0.7 -3.6,1 -1.7,0.4 -5.1,1 -5,3.4 0.1,2.5 2.6,3 4.5,2.8 3,-0.2 4.6,-2 4.8,-4.4 z m -8.5,-7.3 -5.6,-0.2 c 0.2,-1.1 0.2,-8 9.9,-7.8 5.1,0.1 10.3,1.7 10.3,8.2 v 13.2 c 0,0.5 0.1,1 0.3,1.5 0.2,0.4 0.4,0.5 0.7,0.8 h -6.5 c 0,0 -0.2,-0.5 -0.4,-1.5 -0.1,-0.7 -0.1,-0.7 -0.2,-1.2 0,0 -1,3.1 -6.2,3.4 -4.5,0.2 -9,-2.4 -9.3,-6.8 -0.2,-2.9 1.7,-5.2 4,-6.3 1.7,-0.8 4.3,-1.4 7.9,-1.9 2.3,-0.3 3.4,-0.7 3.5,-2 0.1,-1.8 -1.8,-2.8 -3.8,-2.9 -5,-0.1 -4.6,3.5 -4.6,3.5 M 273,286.8 v 9.9 h 4.8 c 3.5,0.1 6.1,-1.4 6.1,-4.9 0,-3.5 -2.4,-5.1 -6.3,-4.9 H 273 Z m 0,26.5 h -6.8 v -32 h 11.1 c 7.8,-0.3 13.2,3.4 13.2,10.4 0,8.5 -6.1,10.7 -13.9,10.6 0,0 -1.8,0 -3.6,0 v 11 m 42.6,0 v -32 h 6.4 v 17.4 l 8,-8.5 h 7.5 l -8.5,8.8 9.5,14.2 h -7.7 l -6.4,-10.2 -2.5,2.5 v 7.7 h -6.3" />
	<path
   id="XMLID_89_"
   class="st3"
   d="m 347.2,279.1 h 1.6 c 1.3,0 2.8,-0.1 2.8,-1.7 0,-1.6 -1.5,-1.7 -2.8,-1.6 h -1.6 z M 345,274 h 4.6 c 2.8,0 4.2,1.3 4.2,3.6 0,2.1 -1.2,3.1 -2.8,3.3 l 3.1,5 h -2.3 l -2.9,-4.8 h -1.6 v 4.8 H 345 Z m 4,14.4 c 4.7,0 8.5,-3.8 8.5,-8.5 0,-4.7 -3.8,-8.5 -8.5,-8.5 -4.7,0 -8.5,3.8 -8.5,8.5 0,4.7 3.8,8.5 8.5,8.5 z m 0,-18.8 c 5.7,0 10.3,4.6 10.3,10.3 0,5.7 -4.6,10.3 -10.3,10.3 -5.7,0 -10.3,-4.6 -10.3,-10.3 -0.1,-5.7 4.6,-10.3 10.3,-10.3" />
	
	
	
	
	
	
	
	
	
	
	
	
	
	
	
	
	
	
	
	
</g>
</svg>
